<svg xmlns="http://www.w3.org/2000/svg" viewBox="0 0 48 48"><defs><style>.cls-1{fill:#6fabe6;}.cls-2{fill:#82bcf4;}</style></defs><title>Eternity</title><g id="Eternity"><path class="cls-1" d="M43.69,16a11.31,11.31,0,0,0-16,0L24,19.69,20.31,16a11.31,11.31,0,1,0,0,16L24,28.31,27.69,32a11.31,11.31,0,0,0,16-16ZM16.78,28.46a6.31,6.31,0,1,1,0-8.92L21.24,24Zm23.37,0a6.31,6.31,0,0,1-8.93,0L26.76,24l4.46-4.46a6.31,6.31,0,0,1,8.93,0A6.31,6.31,0,0,1,40.15,28.46Z"/><path class="cls-2" d="M43.69,16a11.31,11.31,0,0,0-16,0L24,19.69,20.31,16A11.31,11.31,0,0,0,1.1,22.5,11.31,11.31,0,0,0,20.31,29L24,25.31,27.69,29A11.31,11.31,0,0,0,46.9,22.5,11.2,11.2,0,0,0,43.69,16ZM16.78,28.46A6.32,6.32,0,0,1,6,24a5.77,5.77,0,0,1,.19-1.5,6.13,6.13,0,0,1,1.66-3,6.31,6.31,0,0,1,8.93,0l3,3,1.5,1.5Zm23.37,0a6.31,6.31,0,0,1-8.93,0L26.76,24l1.5-1.5,3-3a6.31,6.31,0,0,1,8.93,8.92Z"/></g></svg>